<?xml version="1.0" encoding="utf-8"?>
<!-- Generator: Adobe Illustrator 27.1.0, SVG Export Plug-In . SVG Version: 6.00 Build 0)  -->
<svg version="1.1" id="Capa_1" xmlns="http://www.w3.org/2000/svg" xmlns:xlink="http://www.w3.org/1999/xlink" x="0px" y="0px"
	 viewBox="0 0 150 150" style="enable-background:new 0 0 150 150;" xml:space="preserve">
<style type="text/css">
	.st0{display:none;}
	.st1{fill:#FFFFFF;}
</style>
<circle class="st0" cx="75" cy="75" r="75"/>
<path class="st1" d="M109.2,37.2H40.8c-7.7,0-13.9,6.2-13.9,13.9v47.8c0,7.7,6.2,13.9,13.9,13.9h68.4c7.7,0,13.9-6.2,13.9-13.9V51.1
	C123.1,43.4,116.9,37.2,109.2,37.2z M40.8,43.9h68.5c0.5,0,1.1,0.1,1.6,0.2L82,76.8c-1.8,2-4.3,3.2-7,3.2s-5.2-1.2-7-3.2L39.2,44.1
	C39.7,44,40.2,43.9,40.8,43.9z M116.4,98.9c0,3.9-3.2,7.2-7.2,7.2H40.8c-3.9,0-7.2-3.2-7.2-7.2V51.1c0-0.9,0.2-1.9,0.5-2.7L63,81.2
	c3.1,3.4,7.4,5.4,12,5.4s9-2,12-5.4l28.9-32.8c0.3,0.8,0.5,1.7,0.5,2.7V98.9z"/>
</svg>
