<?xml version="1.0" encoding="utf-8"?>
<!-- Generator: Adobe Illustrator 27.1.0, SVG Export Plug-In . SVG Version: 6.00 Build 0)  -->
<svg version="1.1" id="Capa_1" xmlns="http://www.w3.org/2000/svg" xmlns:xlink="http://www.w3.org/1999/xlink" x="0px" y="0px"
	 viewBox="0 0 150 150" style="enable-background:new 0 0 150 150;" xml:space="preserve">
<style type="text/css">
	.st0{display:none;}
	.st1{fill:#FFFFFF;}
</style>
<circle class="st0" cx="75" cy="75" r="75"/>
<path class="st1" d="M75,26.7c-26.6,0-48.2,21.6-48.2,48.2s21.6,48.2,48.2,48.2s48.2-21.6,48.2-48.2S101.6,26.7,75,26.7z
	 M78.6,115.6v-3.2c0-2-1.6-3.6-3.6-3.6s-3.6,1.6-3.6,3.6v3.2C51.7,113.9,36,98.1,34.3,78.4h3.1c2,0,3.6-1.6,3.6-3.6
	s-1.6-3.6-3.6-3.6h-3.1c1.8-19.6,17.5-35.3,37.1-37v3c0,2,1.6,3.6,3.6,3.6s3.6-1.6,3.6-3.6v-3c19.6,1.7,35.3,17.4,37.1,37h-3.1
	c-2,0-3.6,1.6-3.6,3.6s1.6,3.6,3.6,3.6h3.1C114,98.1,98.3,113.9,78.6,115.6z"/>
<path class="st1" d="M100.6,55.2L79.1,77.8v0.3c0,2.3-1.8,4.1-4.1,4.1c-2.2,0-3.9-1.7-4.1-3.8l-18-13.6c-1.2-0.9-1.4-2.6-0.5-3.8
	c0.9-1.2,2.6-1.4,3.8-0.5l18,13.6c0.2,0,0.5-0.1,0.8-0.1h0.1l21.5-22.6c1-1.1,2.8-1.1,3.9-0.1C101.6,52.4,101.6,54.1,100.6,55.2z"/>
</svg>
